 <svg class="cta-dni" xmlns="http://www.w3.org/2000/svg" version="1.0" width="80" height="40"
                    viewBox="0 0 310 150" preserveAspectRatio="xMidYMid meet">

                    <g transform="translate(0.000000,137.000000) scale(0.100000,-0.100000)" fill="#000000"
                      stroke="none">
                      <path
                        d="M269 1032 c-19 -16 -23 -30 -27 -103 -3 -65 0 -89 12 -104 12 -16 18 -18 33 -9 15 9 19 27 21 93 l3 81 84 0 c87 0 101 6 90 40 -6 18 -15 20 -100 20 -75 0 -97 -3 -116 -18z" />
                      <path
                        d="M790 1035 c-24 -29 5 -44 93 -47 l82 -3 5 -85 c4 -73 8 -85 24 -88 28 -6 36 15 36 106 0 75 -2 85 -25 107 -22 23 -32 25 -113 25 -67 0 -93 -4 -102 -15z" />
                      <path
                        d="M1310 1043 c-23 -9 -60 -45 -76 -75 -8 -15 -14 -55 -14 -90 0 -73 21 -117 72 -148 40 -24 123 -27 174 -5 34 14 34 14 21 47 -7 18 -15 32 -18 32 -77 -25 -87 -26 -115 -13 -38 19 -56 55 -50 104 9 71 71 104 136 70 30 -16 33 -14 49 28 9 24 7 28 -19 42 -28 15 -128 20 -160 8z" />
                      <path
                        d="M2507 1020 c-8 -21 -18 -30 -34 -30 -19 0 -23 -5 -23 -30 0 -23 4 -30 20 -30 18 0 20 -7 20 -84 0 -69 4 -88 21 -110 18 -22 28 -26 75 -26 49 0 54 2 54 23 0 31 -11 42 -40 42 -24 0 -25 2 -28 78 l-3 77 36 0 c32 0 35 2 35 30 0 28 -3 30 -35 30 -32 0 -35 2 -35 30 0 26 -4 30 -26 30 -19 0 -28 -7 -37 -30z" />
                      <path
                        d="M1943 990 c-62 -14 -93 -61 -93 -135 0 -94 50 -145 143 -145 48 0 107 17 107 31 0 4 -5 19 -11 33 -11 23 -14 24 -33 11 -30 -21 -82 -19 -106 5 -34 34 -24 40 70 40 l90 0 0 38 c0 89 -76 144 -167 122z m79 -74 c4 -6 8 -19 8 -28 0 -15 -9 -18 -50 -18 -56 0 -65 15 -29 51 21 21 56 19 71 -5z" />
                      <path
                        d="M1542 869 c3 -113 5 -122 27 -140 36 -29 106 -26 136 7 l23 25 4 -23 c2 -18 10 -24 36 -26 l32 -3 0 140 0 141 -39 0 -39 0 -4 -95 c-2 -54 -8 -99 -15 -106 -16 -16 -63 -15 -74 2 -5 8 -9 56 -9 107 l0 92 -41 0 -41 0 4 -121z" />
                      <path
                        d="M2160 850 l0 -140 40 0 40 0 0 93 c0 78 3 97 18 110 10 10 25 17 33 17 32 0 39 -23 39 -122 l0 -98 40 0 40 0 0 118 c0 111 -1 120 -23 140 -32 30 -102 30 -133 1 l-22 -21 -7 21 c-4 15 -15 21 -36 21 l-29 0 0 -140z" />
                      <path
                        d="M2698 974 c-32 -17 -32 -15 -17 -48 11 -24 13 -24 40 -11 34 18 81 19 97 3 23 -23 12 -37 -35 -44 -87 -12 -113 -34 -113 -95 0 -41 32 -69 79 -69 23 0 48 8 64 20 14 11 28 20 31 20 3 0 6 -9 6 -20 0 -16 7 -20 30 -20 l30 0 0 111 c0 109 0 111 -29 140 -27 26 -36 29 -93 29 -36 -1 -75 -7 -90 -16z m128 -178 c-11 -18 -25 -26 -46 -26 -25 0 -30 4 -30 25 0 19 7 26 28 31 15 3 32 7 37 9 21 6 27 -15 11 -39z" />
                      <path
                        d="M444 859 c-38 -11 -86 -57 -82 -78 5 -26 34 -24 62 3 14 15 37 26 51 26 30 0 43 24 25 45 -14 17 -13 17 -56 4z" />
                      <path
                        d="M776 860 c-41 -13 -84 -58 -96 -99 -5 -20 -10 -86 -10 -148 l0 -112 -52 -3 c-49 -3 -53 -5 -53 -28 0 -24 2 -25 63 -25 96 0 102 11 102 182 0 129 1 135 25 158 13 14 36 25 50 25 30 0 43 24 25 45 -14 17 -14 17 -54 5z" />
                      <path d="M447 762 c-30 -32 -21 -42 38 -42 59 0 70 13 39 44 -21 21 -57 20 -77 -2z" />
                      <path d="M777 762 c-30 -32 -21 -42 38 -42 59 0 70 13 39 44 -21 21 -57 20 -77 -2z" />
                      <path
                        d="M1230 434 l0 -167 98 5 c144 7 188 41 198 151 4 41 1 61 -18 97 -33 64 -70 80 -185 80 l-93 0 0 -166z m196 75 c13 -15 18 -36 18 -76 0 -69 -23 -93 -90 -93 l-44 0 0 95 0 95 48 0 c37 0 54 -5 68 -21z" />
                      <path
                        d="M1590 435 l0 -165 35 0 34 0 3 111 3 112 70 -112 c69 -109 71 -111 108 -111 l37 0 0 165 0 165 -41 0 -41 0 4 -105 c2 -58 3 -105 2 -105 -1 0 -33 47 -70 105 -67 103 -69 105 -106 105 l-38 0 0 -165z" />
                      <path d="M1950 435 l0 -165 40 0 40 0 0 165 0 165 -40 0 -40 0 0 -165z" />
                      <path
                        d="M982 501 c-6 -4 -12 -41 -14 -91 l-3 -85 -87 -3 c-92 -3 -113 -15 -81 -48 13 -13 33 -15 104 -12 118 4 123 10 127 132 4 84 2 95 -15 104 -11 6 -24 7 -31 3z" />
                      <path
                        d="M274 487 c-18 -48 104 -178 190 -201 90 -25 110 -27 130 -13 33 24 13 43 -51 51 -99 11 -166 55 -210 136 -21 38 -50 51 -59 27z" />
                    </g>
                  </svg>